<svg xmlns="http://www.w3.org/2000/svg" viewBox="0 0 920 1080" role="img" aria-label="Atmospheric data atlas">
  <defs>
    <linearGradient id="sky" x1="0" y1="0" x2="1" y2="1">
      <stop offset="0" stop-color="#07120f"/>
      <stop offset="0.48" stop-color="#17473d"/>
      <stop offset="1" stop-color="#d9b66b"/>
    </linearGradient>
    <linearGradient id="warm" x1="0" y1="0" x2="1" y2="0">
      <stop offset="0" stop-color="#8c1515"/>
      <stop offset="0.55" stop-color="#c57a4c"/>
      <stop offset="1" stop-color="#d9b66b"/>
    </linearGradient>
    <filter id="soft">
      <feGaussianBlur stdDeviation="18"/>
    </filter>
  </defs>
  <rect width="920" height="1080" fill="url(#sky)"/>
  <g opacity=".16" stroke="#fff8e9" stroke-width="1">
    <path d="M0 90H920M0 180H920M0 270H920M0 360H920M0 450H920M0 540H920M0 630H920M0 720H920M0 810H920M0 900H920M0 990H920"/>
    <path d="M92 0V1080M184 0V1080M276 0V1080M368 0V1080M460 0V1080M552 0V1080M644 0V1080M736 0V1080M828 0V1080"/>
  </g>
  <g opacity=".34" fill="none" stroke="#fff8e9" stroke-linecap="round">
    <path stroke-width="5" d="M62 706C174 610 260 581 365 618c122 43 184 160 323 126 80-20 116-74 174-100"/>
    <path stroke-width="3" d="M58 622c126-111 244-129 365-71 105 50 163 117 271 84 68-21 105-68 168-92"/>
    <path stroke-width="2" d="M83 792c136-77 242-69 367-8 101 50 183 78 280 34 45-21 75-52 132-73"/>
  </g>
  <g filter="url(#soft)" opacity=".65">
    <path fill="#fff8e9" opacity=".18" d="M99 427c140-99 288-113 438-29 96 54 192 69 288 21v233c-84 34-164 36-239 7-136-51-248-67-363 18-42 31-83 56-124 73z"/>
    <path fill="#c57a4c" opacity=".38" d="M158 714c155-60 265-41 384 37 96 63 195 70 299 23v180H158z"/>
  </g>
  <g transform="translate(92 126)">
    <rect width="736" height="278" fill="none" stroke="#fff8e9" opacity=".42"/>
    <g fill="none" stroke="#d9b66b" stroke-width="4">
      <path d="M54 218C168 154 269 130 358 142c94 12 183 65 324 29"/>
      <path opacity=".58" d="M54 166c118-72 233-87 342-43 88 36 172 38 286 5"/>
    </g>
    <g fill="#fff8e9">
      <circle cx="54" cy="218" r="7"/>
      <circle cx="188" cy="153" r="5"/>
      <circle cx="330" cy="139" r="7"/>
      <circle cx="486" cy="176" r="5"/>
      <circle cx="682" cy="171" r="7"/>
    </g>
    <g font-family="IBM Plex Mono, monospace" font-size="18" font-weight="600" fill="#fff8e9">
      <text x="24" y="42">OZONE RESPONSE</text>
      <text x="24" y="252">smoke influence</text>
      <text x="548" y="252">2006-2023</text>
    </g>
  </g>
  <g transform="translate(92 870)">
    <rect width="736" height="102" fill="#07120f" opacity=".52" stroke="#fff8e9" stroke-opacity=".26"/>
    <rect x="24" y="26" width="92" height="48" fill="url(#warm)"/>
    <rect x="132" y="26" width="154" height="48" fill="#fff8e9" opacity=".13"/>
    <rect x="302" y="26" width="154" height="48" fill="#fff8e9" opacity=".13"/>
    <rect x="472" y="26" width="240" height="48" fill="#fff8e9" opacity=".13"/>
  </g>
  <g font-family="IBM Plex Mono, monospace" fill="#fff8e9" font-weight="600">
    <text x="92" y="70" font-size="18">ATMOSPHERIC ATLAS</text>
    <text x="92" y="1020" font-size="18">FIRE SMOKE / O3 / CLIMATE STRESS</text>
    <text x="748" y="1020" font-size="18">Y. LI</text>
  </g>
</svg>
