<svg xmlns="http://www.w3.org/2000/svg" viewBox="0 0 760 520" role="img" aria-label="Abstract smoke and ozone field map">
  <defs>
    <linearGradient id="bg" x1="0" y1="0" x2="1" y2="1">
      <stop offset="0" stop-color="#163f39"/>
      <stop offset="0.55" stop-color="#2c7465"/>
      <stop offset="1" stop-color="#d6aa4f"/>
    </linearGradient>
    <filter id="blur">
      <feGaussianBlur stdDeviation="18"/>
    </filter>
  </defs>
  <rect width="760" height="520" fill="url(#bg)"/>
  <g opacity="0.16" stroke="#fffdf8" stroke-width="1">
    <path d="M0 82H760M0 164H760M0 246H760M0 328H760M0 410H760"/>
    <path d="M95 0V520M190 0V520M285 0V520M380 0V520M475 0V520M570 0V520M665 0V520"/>
  </g>
  <g fill="none" stroke="#fffdf8" stroke-linecap="round">
    <path opacity="0.46" stroke-width="5" d="M94 326C162 251 221 232 293 259C379 291 416 371 510 355C596 340 626 270 693 254"/>
    <path opacity="0.32" stroke-width="3" d="M70 256C150 189 229 178 310 208C414 246 452 306 548 286C612 273 644 224 714 203"/>
    <path opacity="0.28" stroke-width="2" d="M40 378C136 316 212 306 306 339C394 370 442 430 546 404C611 387 650 343 735 331"/>
  </g>
  <g filter="url(#blur)" opacity="0.75">
    <ellipse cx="214" cy="240" rx="112" ry="56" fill="#fffdf8" opacity="0.18"/>
    <ellipse cx="498" cy="302" rx="156" ry="82" fill="#a65f45" opacity="0.32"/>
    <ellipse cx="572" cy="178" rx="120" ry="62" fill="#d6aa4f" opacity="0.26"/>
  </g>
  <g fill="#fffdf8">
    <circle cx="164" cy="292" r="5"/>
    <circle cx="250" cy="242" r="4"/>
    <circle cx="337" cy="283" r="5"/>
    <circle cx="448" cy="351" r="4"/>
    <circle cx="565" cy="330" r="6"/>
    <circle cx="640" cy="260" r="4"/>
  </g>
  <g font-family="IBM Plex Mono, monospace" font-size="17" font-weight="600" fill="#fffdf8">
    <text x="38" y="54">SMOKE O3 FIELD</text>
    <text x="38" y="482">CONUS / 2006-2023</text>
    <text x="565" y="482">YMK-LI</text>
  </g>
</svg>
